<svg id="visual" viewBox="0 0 900 675" width="900" height="675" xmlns="http://www.w3.org/2000/svg" xmlns:xlink="http://www.w3.org/1999/xlink" version="1.1"><path d="M0 75L60 75L60 102L120 102L120 35L180 35L180 62L240 62L240 89L300 89L300 62L360 62L360 48L420 48L420 35L480 35L480 62L540 62L540 102L600 102L600 48L660 48L660 55L720 55L720 55L780 55L780 42L840 42L840 42L900 42L900 96L900 0L900 0L840 0L840 0L780 0L780 0L720 0L720 0L660 0L660 0L600 0L600 0L540 0L540 0L480 0L480 0L420 0L420 0L360 0L360 0L300 0L300 0L240 0L240 0L180 0L180 0L120 0L120 0L60 0L60 0L0 0Z" fill="#fa7268"></path><path d="M0 156L60 156L60 210L120 210L120 82L180 82L180 177L240 177L240 143L300 143L300 177L360 177L360 170L420 170L420 156L480 156L480 183L540 183L540 217L600 217L600 177L660 177L660 102L720 102L720 123L780 123L780 170L840 170L840 82L900 82L900 150L900 94L900 40L840 40L840 40L780 40L780 53L720 53L720 53L660 53L660 46L600 46L600 100L540 100L540 60L480 60L480 33L420 33L420 46L360 46L360 60L300 60L300 87L240 87L240 60L180 60L180 33L120 33L120 100L60 100L60 73L0 73Z" fill="#ed6266"></path><path d="M0 224L60 224L60 258L120 258L120 129L180 129L180 237L240 237L240 204L300 204L300 258L360 258L360 258L420 258L420 237L480 237L480 271L540 271L540 291L600 291L600 258L660 258L660 177L720 177L720 190L780 190L780 217L840 217L840 163L900 163L900 244L900 148L900 80L840 80L840 168L780 168L780 121L720 121L720 100L660 100L660 175L600 175L600 215L540 215L540 181L480 181L480 154L420 154L420 168L360 168L360 175L300 175L300 141L240 141L240 175L180 175L180 80L120 80L120 208L60 208L60 154L0 154Z" fill="#df5265"></path><path d="M0 291L60 291L60 325L120 325L120 197L180 197L180 305L240 305L240 298L300 298L300 325L360 325L360 305L420 305L420 372L480 372L480 393L540 393L540 386L600 386L600 318L660 318L660 285L720 285L720 318L780 318L780 339L840 339L840 298L900 298L900 352L900 242L900 161L840 161L840 215L780 215L780 188L720 188L720 175L660 175L660 256L600 256L600 289L540 289L540 269L480 269L480 235L420 235L420 256L360 256L360 256L300 256L300 202L240 202L240 235L180 235L180 127L120 127L120 256L60 256L60 222L0 222Z" fill="#d04263"></path><path d="M0 568L60 568L60 575L120 575L120 386L180 386L180 588L240 588L240 514L300 514L300 447L360 447L360 575L420 575L420 521L480 521L480 528L540 528L540 467L600 467L600 561L660 561L660 521L720 521L720 420L780 420L780 447L840 447L840 487L900 487L900 528L900 350L900 296L840 296L840 337L780 337L780 316L720 316L720 283L660 283L660 316L600 316L600 384L540 384L540 391L480 391L480 370L420 370L420 303L360 303L360 323L300 323L300 296L240 296L240 303L180 303L180 195L120 195L120 323L60 323L60 289L0 289Z" fill="#c13361"></path><path d="M0 676L60 676L60 676L120 676L120 676L180 676L180 676L240 676L240 676L300 676L300 676L360 676L360 676L420 676L420 676L480 676L480 676L540 676L540 676L600 676L600 676L660 676L660 676L720 676L720 676L780 676L780 676L840 676L840 676L900 676L900 676L900 526L900 485L840 485L840 445L780 445L780 418L720 418L720 519L660 519L660 559L600 559L600 465L540 465L540 526L480 526L480 519L420 519L420 573L360 573L360 445L300 445L300 512L240 512L240 586L180 586L180 384L120 384L120 573L60 573L60 566L0 566Z" fill="#b0235f"></path></svg>